<?xml version="1.0" encoding="UTF-8" standalone="no"?>
<!-- Created with Inkscape (http://www.inkscape.org/) -->

<svg
   version="1.1"
   id="svg1586"
   width="3464"
   height="3464"
   viewBox="0 0 3464 3464"
   sodipodi:docname="logo  icona.svg"
   inkscape:version="1.2.2 (732a01da63, 2022-12-09)"
   xmlns:inkscape="http://www.inkscape.org/namespaces/inkscape"
   xmlns:sodipodi="http://sodipodi.sourceforge.net/DTD/sodipodi-0.dtd"
   xmlns="http://www.w3.org/2000/svg"
   xmlns:svg="http://www.w3.org/2000/svg">
  <defs
     id="defs1590" />
  <sodipodi:namedview
     id="namedview1588"
     pagecolor="#ffffff"
     bordercolor="#000000"
     borderopacity="0.25"
     inkscape:showpageshadow="2"
     inkscape:pageopacity="0.0"
     inkscape:pagecheckerboard="0"
     inkscape:deskcolor="#d1d1d1"
     showgrid="false"
     inkscape:zoom="0.21911085"
     inkscape:cx="1729.7181"
     inkscape:cy="1732"
     inkscape:window-width="1920"
     inkscape:window-height="986"
     inkscape:window-x="-11"
     inkscape:window-y="-11"
     inkscape:window-maximized="1"
     inkscape:current-layer="g1592" />
  <g
     inkscape:groupmode="layer"
     inkscape:label="Image"
     id="g1592">
    <path
       style="fill:#00ffff;stroke-width:3.96384;stroke-linecap:square;paint-order:markers stroke fill"
       id="path2353"
       sodipodi:type="arc"
       sodipodi:cx="1701.8206"
       sodipodi:cy="1602.3108"
       sodipodi:rx="791.83667"
       sodipodi:ry="780.42688"
       sodipodi:start="0.53739861"
       sodipodi:end="0.5359305"
       sodipodi:arc-type="slice"
       d="M 2382.0425,2001.8137 A 791.83667,780.42688 0 0 1 1296.7267,2272.8778 791.83667,780.42688 0 0 1 1021.3013,1203.3001 791.83667,780.42688 0 0 1 2106.4149,931.45087 791.83667,780.42688 0 0 1 2382.6369,2000.829 l -680.8163,-398.5182 z" />
    <path
       style="fill:#00ffff;stroke-width:2.7;stroke-linecap:square;paint-order:markers stroke fill"
       id="path2367"
       sodipodi:type="arc"
       sodipodi:cx="1423.9368"
       sodipodi:cy="1492.3953"
       sodipodi:rx="86.714058"
       sodipodi:ry="59.330696"
       sodipodi:start="0.53739861"
       sodipodi:end="0.5359305"
       sodipodi:arc-type="slice"
       d="m 1498.4279,1522.7668 a 86.714058,59.330696 0 0 1 -118.853,20.6072 86.714058,59.330696 0 0 1 -30.1618,-81.3129 86.714058,59.330696 0 0 1 118.8308,-20.6669 86.714058,59.330696 0 0 1 30.2491,81.2978 l -74.5562,-30.2967 z" />
    <path
       style="fill:#00ffff;stroke-width:2.7;stroke-linecap:square;paint-order:markers stroke fill"
       id="path2369"
       sodipodi:type="arc"
       sodipodi:cx="1951.5487"
       sodipodi:cy="1913.2252"
       sodipodi:rx="2.763478"
       sodipodi:ry="149.65758"
       sodipodi:start="0.53739861"
       sodipodi:end="0.5359305"
       sodipodi:arc-type="slice"
       d="m 1953.9227,1989.8354 a 2.763478,149.65758 0 0 1 -3.7878,51.9803 2.763478,149.65758 0 0 1 -0.9612,-205.1063 2.763478,149.65758 0 0 1 3.787,-52.1308 2.763478,149.65758 0 0 1 0.964,205.068 l -2.376,-76.4214 z" />
    <path
       style="fill:#1a292d;stroke:none;stroke-width:0.964293"
       d="m 1304.9031,1608.0045 c -8.7321,1.8057 -19.812,-3.0939 -28.7131,-4.2171 -19.6601,-2.4774 -39.413,-3.8317 -59.1153,-5.5935 -30.7907,-2.7527 -62.0121,-1.2002 -92.8955,-1.2002 -24.3218,0 -49.1755,-2.103 -73.4719,0.914 -19.7023,2.4444 -39.4384,3.6446 -59.11543,7.102 -3.09933,0.5504 -17.19749,2.2571 -17.19749,7.6304 0,8.3461 20.89643,10.6254 25.64252,12.9266 22.7341,11.0437 46.5914,25.0274 66.7159,42.7877 3.8763,3.4243 18.6889,14.4901 17.2786,21.9333 -0.5743,2.9949 -4.4759,4.3052 -6.3,5.5716 -5.9369,4.1399 -11.8822,8.302 -17.7346,12.6512 -18.9591,14.0938 -37.9183,30.0264 -54.8929,47.9187 -4.7798,5.043 -14.73656,14.6664 -15.55573,23.2768 -0.48136,5.098 3.92695,4.085 6.26623,3.171 9.5176,-3.7326 17.8866,-5.9347 27.8687,-7.9607 16.9577,-3.4463 34.65,0.3633 51.5148,2.4663 21.6953,2.7088 46.5068,4.9218 65.8713,18.9055 v 1.1011 c -11.9582,8.6434 -24.3133,18.3879 -29.5576,35.2344 10.666,14.1157 27.3112,10.1408 41.3807,11.5833 18.8071,1.9157 37.2005,5.5934 55.7373,9.9757 10.379,2.4443 22.8524,5.186 32.0743,12.1888 6.7307,5.109 -0.8867,24.7852 -1.5286,33.4176 -1.4609,19.7203 7.5838,38.7138 21.8136,45.4743 16.7381,7.9608 31.6858,3.2152 44.6152,-12.7393 4.6954,-5.8027 9.3487,-16.9896 15.3531,-20.2377 5.8862,-3.1822 15.7247,0.1982 21.9487,0.6165 14.4833,0.9579 29.0088,0.5396 43.4751,1.8499 4.8136,0.4293 11.1221,-1.4644 15.6064,0.5284 5.7596,2.5655 8.082,14.292 10.2861,20.8434 6.1395,18.2448 15.2349,57.9495 34.5065,58.1587 18.5706,0.1982 36.4066,-22.5059 38.6023,-44.9459 0.9036,-9.1608 2.3055,-18.3108 2.7953,-27.5268 0.1774,-3.2262 0.2955,-8.4452 3.1247,-9.7224 5.5906,-2.5435 13.2925,-1.057 19.1702,-1.5416 11.5529,-0.9579 23.0719,-2.3453 34.6247,-3.3031 30.4698,-2.5215 60.8297,-7.8287 91.0967,-12.299 60.2386,-8.9078 120.1731,-20.2928 180.4792,-28.3747 34.7597,-4.6576 70.609,-12.4641 105.563,-11.9027 11.3079,0.1763 22.3794,2.0922 32.0911,10.086 11.3164,9.315 16.6791,21.5259 31.2468,22.8251 21.9571,1.9599 44.7672,-5.208 66.7158,-6.4633 45.7215,-2.6095 92.2369,0.4075 137.6543,6.7497 23.8742,3.3362 47.7991,7.179 71.6394,11.33 10.9955,1.9159 24.8707,7.6414 35.5031,1.0791 7.9805,-4.9329 1.8325,-19.3349 -1.3597,-25.8093 -6.4943,-13.2128 -13.8921,-25.1814 -21.4251,-37.3923 -4.6954,-7.6085 -10.1932,-14.4352 -11.9413,-24.2677 -1.9339,-10.9117 3.8087,-20.1057 9.5767,-27.0534 12.1186,-14.6003 27.8687,-21.9335 41.2709,-34.0783 3.7919,-3.4354 12.1102,-19.0596 1.7228,-17.0447 -2.2548,-8.4011 -21.7037,-10.339 -27.8686,-11.0877 -20.7748,-2.5656 -41.8791,-3.1822 -62.4934,-7.7185 -5.7089,-1.2553 -18.1062,-4.2062 -21.4166,-11.2089 -2.9389,-6.1991 11.3755,-14.8646 14.6606,-16.7804 10.9025,-6.3422 22.8438,-12.6844 34.6247,-15.6242 6.452,-1.6075 13.0729,-0.1763 19.4235,-1.6957 3.3528,-0.7928 8.0313,-5.6155 4.0115,-9.6454 -3.3611,-3.3693 -9.2811,-2.4444 -13.301,-3.5454 -12.5155,-3.4465 -25.2507,-5.3182 -38.0027,-6.4744 -24.4484,-2.2022 -49.0489,-7.5313 -73.472,-10.7245 -12.98,-1.6956 -28.8905,-0.2532 -41.347,-5.219 -6.9587,-2.7748 -3.7411,-17.5952 -4.3491,-24.6972 -0.5405,-6.3201 -4.2816,-9.403 -8.3522,-11.9907 -11.7555,-7.4873 -24.516,-11.2089 -37.1582,-14.9856 -3.7412,-1.123 -11.4515,-0.9248 -13.3348,-6.298 -1.8494,-5.2963 3.0403,-17.5953 4.3324,-22.8803 5.067,-20.5682 10.1171,-41.1582 15.3446,-61.6602 10.2438,-40.2332 20.8255,-80.5214 30.2079,-121.1182 5.464,-23.662 9.678,-53.1599 18.7143,-74.8509 2.8713,-6.8927 10.0665,-9.1279 14.8295,-13.3341 7.2374,-6.3971 13.0307,-15.1397 17.0759,-25.2255 16.527,-41.2353 -0.8361,-94.0317 -35.655,-104.8773 -42.3772,-13.1909 -72.7964,50.2861 -57.8909,98.2709 3.4288,11.0437 8.7069,20.557 15.6656,28.2975 2.5166,2.7967 9.4669,6.4414 9.3234,11.4402 -0.3631,13.2128 -12.7351,32.7129 -17.7768,43.9439 -14.4664,32.2173 -32.8344,65.3707 -56.5734,86.8527 -12.8112,11.5942 -27.2607,19.6982 -43.0698,15.3158 -20.3694,-5.6484 -36.2461,-24.8732 -49.336,-44.9127 -25.656,-39.2533 -42.4194,-87.2822 -57.7895,-134.331 -4.974,-15.2169 -9.2895,-30.6649 -13.5204,-46.2451 -1.7397,-6.4192 -5.4047,-15.1068 -5.1936,-22.0104 0.1942,-6.5845 9.3401,-12.9818 12.5324,-17.6282 7.3725,-10.7575 13.115,-26.1285 13.6218,-40.7399 1.5792,-45.3752 -23.359,-87.1829 -60.7705,-78.9578 -38.5432,8.4672 -53.2461,70.5568 -33.8224,110.8891 3.9522,8.203 9.7455,15.9436 16.0878,20.9975 2.9304,2.3342 9.0362,4.5033 9.1291,9.8875 0.093,5.6156 -2.7784,12.255 -4.0368,17.5622 -3.454,14.4901 -7.2373,28.7159 -11.2741,42.9418 -14.0863,49.6145 -30.4359,100.5831 -56.1426,142.0385 -11.7893,19.0045 -29.1692,39.2643 -49.1503,39.2643 -19.0689,0 -36.3812,-18.0576 -48.9728,-34.8599 -29.9546,-39.98 -50.932,-93.4481 -67.9235,-144.2408 -4.9065,-14.6442 -9.7455,-29.2223 -14.3397,-44.0428 -1.5707,-5.076 -5.219,-13.0919 -4.9826,-18.6082 0.2449,-5.7807 13.7823,-12.8606 17.1435,-16.8133 9.4162,-11.0989 16.7127,-28.1876 17.6586,-44.957 2.5926,-46.157 -23.4857,-87.6234 -60.7284,-80.0479 -34.6753,7.0467 -51.6921,61.4178 -38.0871,100.9684 2.8713,8.3461 7.1023,16.1417 12.1524,22.4729 2.7784,3.4904 7.8877,7.0138 7.6343,12.7614 -0.2787,6.5405 -3.4794,13.6533 -5.067,19.8194 -4.1127,16.0426 -8.4113,31.7439 -13.4361,47.3461 -14.9393,46.4213 -30.1488,92.8316 -53.6683,133.2299 -11.2234,19.2688 -26.0952,39.6057 -44.649,45.8268 -43.0781,14.457 -75.4733,-55.9456 -93.2502,-96.4761 -4.8896,-11.1428 -9.3233,-22.473 -13.4191,-34.1334 -1.2921,-3.6775 -4.1803,-8.8856 -3.7834,-13.1137 0.5827,-6.166 12.0426,-13.1468 15.3024,-17.8925 9.1292,-13.2679 16.0625,-34.4746 14.5509,-52.6754 -1.157,-13.9616 -3.6314,-28.0002 -10.0159,-39.6386 -15.9443,-29.0683 -47.6723,-38.7247 -70.6851,-17.5731 -22.5651,20.7552 -28.4767,59.3588 -18.0639,91.345 3.7242,11.4292 10.3029,21.449 18.0639,28.5839 5.067,4.6577 12.4142,6.4964 15.1082,14.3581 8.1749,23.8712 12.8365,51.0788 18.9591,75.9741 13.1152,53.2919 26.7118,106.3636 39.8269,159.6555 6.0805,24.7192 10.8434,50.7817 18.1568,74.8731 m 209.4372,-512.77 c 27.3789,-5.5825 33.8562,50.4402 6.7561,55.4942 -25.6476,4.7785 -31.8548,-50.3742 -6.7561,-55.4942 m 292.1987,-0.012 c 27.0326,-4.7457 32.5472,50.5392 5.9116,55.5051 -26.0446,4.8557 -31.5085,-51.0017 -5.9116,-55.5051 m -567.5072,100.1976 c 26.5512,-4.3931 31.2298,51.9819 5.067,55.6484 -26.661,3.7326 -31.5338,-51.266 -5.067,-55.6484 m 859.7058,0 c 24.3555,-4.0299 32.4459,49.163 8.4451,54.4922 -5.2106,1.1562 -12.448,1.1781 -16.8901,-2.8408 -15.1758,-13.7523 -10.7421,-48.4691 8.445,-51.6514 m -585.2417,42.6227 c 8.1494,19.9624 14.1201,42.1601 21.3743,62.7612 17.8783,50.7595 42.2,105.2516 74.8992,142.0385 29.2283,32.8891 66.1585,49.163 101.3406,20.8543 10.9363,-8.8087 20.8086,-20.3038 29.1945,-32.9662 15.5811,-23.5189 26.3992,-50.231 38.0112,-77.0751 14.7365,-34.1002 25.6898,-72.9682 34.9794,-110.1074 h 1.689 c 8.9179,21.8233 14.2721,46.7956 22.2188,69.3677 15.0068,42.6335 33.9322,83.6485 58.1104,118.4535 21.0197,30.2574 51.8188,55.1967 84.3491,49.6915 17.8191,-3.017 34.0082,-14.1708 48.1368,-28.1986 6.4774,-6.4302 12.068,-16.5602 19.4236,-21.0305 -0.4561,11.5283 -4.9657,23.1776 -7.5836,34.1333 -5.616,23.563 -11.4853,47.0599 -17.4729,70.4687 -2.0099,7.8838 -4.2055,29.674 -9.8976,34.0562 -2.5757,1.982 -8.5801,0.2533 -11.4936,-0.1103 -9.8723,-1.2332 -19.7023,-2.7967 -29.5577,-4.0299 -31.5591,-3.9309 -63.7517,-5.1201 -95.4291,-2.2902 -94.1199,8.4011 -187.3363,29.0793 -281.22,40.8277 -30.8413,3.8539 -61.8093,14.1268 -92.8955,14.1268 2.2041,-19.4889 7.6512,-39.3964 7.1022,-59.458 -0.1181,-4.0629 0.6926,-16.6372 -3.0993,-18.3328 -3.7158,-1.6736 -11.975,15.9325 -14.0356,19.4339 -8.9095,15.0847 -17.8359,30.1584 -26.8384,45.144 -3.2176,5.3403 -7.3303,15.1728 -12.2537,17.9036 -7.1361,3.9417 -19.1618,1.6845 -26.8806,1.9268 -17.439,0.5615 -34.8866,2.1912 -52.3593,2.1912 -5.9707,0 -20.2428,3.3912 -24.9805,-1.7618 -2.9388,-3.2041 -4.1634,-10.24 -5.4639,-14.7543 -3.0824,-10.7026 -6.4521,-21.339 -9.7541,-31.9312 -8.9095,-28.5177 -15.9611,-57.7954 -23.4181,-86.9848 -4.231,-16.5492 -10.4381,-34.5297 -12.3889,-51.7505 7.1868,2.6316 13.2503,13.2569 19.4236,18.8393 12.8703,11.6494 28.8906,20.5571 44.7588,20.7993 30.4106,0.4515 56.4805,-24.6751 75.2285,-53.9525 35.0638,-54.7675 55.5262,-122.5166 75.0933,-188.2837 h 1.6891 m -160.456,402.993 91.2066,-4.4042 c -1.5539,10.2068 -9.526,19.5109 -14.3566,27.5268 -11.0462,18.3328 -21.9571,36.8198 -33.1046,55.0536 -2.3224,3.7987 -6.0551,8.3902 -6.9925,13.2129 -1.157,5.9018 6.2324,29.9713 10.1172,33.4286 2.6095,2.3343 5.3372,-2.6095 6.8236,-4.8007 5.6413,-8.3792 11.1812,-16.8684 16.7549,-25.3247 17.0675,-25.9082 34.439,-51.5742 51.8611,-77.0752 5.751,-8.4012 12.4564,-24.4988 21.2562,-27.3727 7.7863,-2.5434 16.51,-1.5304 24.4906,-2.5434 14.9477,-1.8938 29.8279,-4.7567 44.7588,-6.6064 45.3752,-5.6265 90.6322,-13.4001 135.9653,-19.8193 82.3645,-11.6824 164.8809,-33.781 248.2843,-26.3377 34.1264,3.0499 67.5857,7.0909 101.3406,15.0516 10.6829,2.5105 30.3768,5.5164 38.5769,15.4921 5.3711,6.5294 1.7819,31.6889 2.8038,41.1251 4.6701,42.9419 8.5633,93.3601 3.1247,136.5331 -1.1992,9.4694 -8.0398,5.3292 -13.2588,4.5916 -13.1658,-1.8718 -26.6272,-2.9069 -39.6917,-5.2301 -57.5531,-10.207 -115.8914,-12.3652 -173.968,-11.4732 -81.9084,1.2772 -163.6903,15.1727 -244.9063,27.8461 -28.7723,4.4815 -57.2912,11.6714 -86.1395,15.2829 -27.2353,3.4023 -54.7746,6.9478 -81.917,11.1429 -13.0222,2.0039 -31.6605,7.8286 -43.9142,-0.9359 -11.063,-7.9057 -12.7098,-31.4467 -17.059,-45.6285 -9.7034,-31.6229 -19.6938,-63.0806 -29.3888,-94.6924 -4.2056,-13.7084 -11.5359,-29.2886 -12.6676,-44.0429 m -72.6273,-28.6279 c -5.8187,5.6375 -15.0491,4.3052 -21.9572,5.7807 -20.3525,4.3271 -41.8705,6.3311 -62.4933,6.3311 -8.7575,0 -23.8657,-3.7437 -31.1538,3.8648 -7.0854,7.3992 -2.9896,29.5637 -3.547,40.1781 -1.2667,24.0474 -0.2702,49.6474 0.9966,73.772 0.7601,14.5011 3.1162,33.2524 -0.076,47.3462 -39.278,-14.5343 -80.5573,-24.3228 -121.6087,-21.9775 -12.5071,0.7158 -24.0093,5.2963 -36.3137,6.5624 2.3477,-12.8605 14.9984,-22.5059 22.8016,-29.729 23.1901,-21.46 47.9595,-43.3932 76.0055,-51.7504 -3.2767,-12.5744 -15.5051,-21.8343 -23.6462,-28.8152 -24.6511,-21.1295 -53.5922,-37.8548 -81.91698,-48.2599 v -2.2022 c 28.78078,-9.7115 60.01898,-7.8837 89.51758,-8.8197 38.2138,-1.2221 76.6979,-2.3893 114.8526,1.0131 20.0232,1.7837 39.9451,1.8278 59.9599,4.3161 6.2409,0.7708 12.4902,0.023 18.5791,2.3894 m 782.0113,-1.101 c -1.0303,4.5694 -2.8967,11.2529 -5.5399,14.6442 -1.9339,2.4885 -5.7342,3.2481 -6.2324,7.3442 -0.4477,3.6886 5.5736,6.6724 5.8608,12.1448 0.8698,16.8024 1.6806,33.7919 1.689,50.6494 0,4.8667 -0.8614,14.391 4.2648,15.2278 7.6258,1.2442 5.1345,-15.9325 4.5349,-21.8343 -2.5166,-25.0384 2.618,-53.8645 -2.8882,-78.1761 h -1.689 m -74.3164,4.4043 c 0,16.9455 0.8445,33.7148 0.8445,50.6493 0,3.5675 1.3597,14.7324 -2.6433,15.5031 -4.6448,0.892 -4.7968,-10.6693 -4.9235,-14.402 -0.5658,-16.9125 -0.7009,-33.781 -1.7228,-50.6494 -4.138,3.2481 -13.8329,19.2578 -14.3566,25.3246 11.063,1.1011 6.4437,31.2045 7.7273,41.8299 0.4645,3.8537 2.8122,6.5294 4.0958,9.9207 -17.8022,12.5191 5.2106,33.1203 8.4451,45.144 3.7665,-2.7307 3.8256,-6.6175 6.3844,-10.5924 6.9672,-10.8345 18.216,-26.8442 2.0607,-36.7538 v -2.2022 c 8.2423,-4.8887 4.6785,-25.0604 4.1464,-35.2344 -0.3547,-6.8155 -1.3259,-12.9816 5.1431,-14.3139 -0.4222,-7.157 -3.775,-6.2871 -7.1361,-10.5263 -2.7277,-3.4244 -4.6025,-9.3591 -6.376,-13.6972 h -1.689 m -135.9653,7.7073 -13.5121,24.2237 c 7.6006,2.9069 7.4064,10.218 7.5921,19.8194 0.3378,18.3658 1.4104,36.7208 1.6975,55.0536 h 8.4451 l -2.5336,-99.0967 h -1.689 m -191.7025,8.8087 c -1.5201,4.4924 -3.0908,10.262 -5.5399,14.0166 -3.0656,4.6796 -7.533,5.043 -6.2831,12.4091 6.0213,-0.6716 5.6666,6.0779 5.9875,12.1118 0.5912,11.0329 0.4307,21.9775 0.8023,33.0323 0.1605,4.6685 2.5757,13.3339 -1.8495,15.8554 -2.8882,1.6407 -15.7247,2.7086 -17.5826,-0.8038 -3.0571,-5.7695 0.1689,-12.9046 -5.9538,-17.0555 -3.7664,-2.5545 -9.3824,-1.2993 -13.4951,-1.2993 -11.4008,0 -31.5761,-3.3692 -40.5363,6.6064 l -1.6552,-45.144 -1.7227,-25.3246 -5.8863,14.0166 -7.6258,12.4091 c 10.8434,1.079 7.2627,34.2214 7.6342,45.144 0.1436,4.3712 2.0269,10.9777 -0.059,14.9416 -3.2429,6.144 -19.28,2.5984 -24.4653,2.6756 -7.5921,0.1211 -14.3059,3.7876 -17.7345,-7.7076 l 21.957,-1.101 -9.6358,-9.5573 -4.7207,-9.161 c -2.694,5.3623 -5.3373,8.159 -10.134,4.6466 -9.4079,-6.8927 -19.4237,-24.0254 -31.2468,-22.6601 -13.6725,1.5745 -14.6775,27.9342 -2.5335,33.4286 -10.5816,18.1016 -8.521,45.2981 10.1341,52.8075 7.0432,2.8407 25.3351,5.7807 28.7132,-5.4614 -7.8202,-2.9839 -15.7248,1.8718 -23.6462,-3.3032 -10.8096,-7.0688 -16.8985,-29.9271 -2.5335,-37.2713 14.2552,-7.2892 13.0645,10.7024 22.1092,17.4189 5.1683,3.8318 15.9611,1.1342 21.805,1.1342 51.3291,0 103.2576,-4.8228 154.5445,-7.7516 8.7068,-0.4955 17.4559,-0.6056 26.1796,-1.1011 2.6855,-0.1541 8.3015,0.056 10.4718,-2.1912 2.3815,-2.4662 1.3512,-9.7004 1.3512,-13.1797 0,-10.24 2.2211,-36.8971 -3.3779,-44.0431 l -5.084,16.4171 -5.8946,11.1098 c 6.5365,2.4775 5.067,11.4622 5.067,18.7183 l -10.4719,-1.7618 -1.3512,-12.5521 -1.689,-27.5268 h -1.689 l -10.9785,26.4256 c 5.8186,3.5236 5.067,8.9959 5.067,16.5161 -2.9812,0 -8.1579,1.2442 -10.4719,-1.7616 -4.1887,-5.4724 -1.4357,-27.8463 -2.1957,-35.6749 l -7.2627,16.9456 -5.1937,8.0708 4.0114,2.5105 c 0.8951,15.4371 -11.2066,12.1117 -20.2682,12.1117 l -1.689,-42.9417 -1.689,-45.1441 h -1.689 m -298.1104,201.4964 c 0.701,-4.7455 3.7158,-8.5553 4.1466,-13.2128 0.515,-5.6155 -8.6309,-33.99 -12.9294,-29.3106 -9.8892,10.7574 -14.1962,31.4577 -25.0312,40.6076 -8.0227,6.7717 -27.6997,1.9158 -37.1244,1.9158 -26.5766,0 -53.7781,-1.101 -80.2279,-4.3272 -8.7154,-1.057 -25.1748,-2.4993 -31.7281,-10.8565 -5.0417,-6.4413 -1.5201,-24.6751 -2.297,-33.2635 -3.1248,-34.5737 -2.2886,-70.865 -2.2886,-105.703 v -28.6279 c 0,-3.4464 -0.5996,-8.5994 1.4693,-11.2971 2.0691,-2.6976 6.0129,-1.9158 8.6647,-1.9158 7.3556,0 14.6353,-1.0901 21.9572,-1.101 26.4921,-0.056 52.8828,4.4042 79.3834,4.4042 7.0938,0 24.4061,-4.0961 30.0475,1.9159 7.06,7.5203 10.4211,29.1785 14.1286,39.9248 11.9412,34.6399 23.2576,69.698 34.7175,104.602 l 10.1426,30.8302 c 1.1146,3.4133 4.1633,8.9847 3.1921,12.8605 -1.2076,4.8447 -13.0475,2.5544 -16.2229,2.5544 m 879.9741,-167.3631 v 1.1011 c -8.5718,4.7236 -18.2498,6.5733 -27.0242,10.9116 -16.2398,8.0489 -31.4833,19.1477 -45.6034,32.2615 -4.3069,3.9968 -19.9809,17.2208 -18.4355,25.0825 1.5623,7.9607 11.5613,15.9545 15.6571,22.0324 10.2608,15.1948 18.0555,32.6579 27.6999,48.4472 4.4421,7.2562 11.2319,13.8736 13.0813,23.1226 -39.9198,-7.6635 -79.6622,-16.8353 -119.9198,-21.8343 -48.1959,-5.9897 -96.8985,-4.5914 -145.2548,-4.5914 10.8181,-6.7826 24.6343,-5.6596 36.3137,-6.7056 16.2145,-1.4424 32.6824,-4.0959 48.9813,-3.1601 11.8822,0.6826 23.5954,3.6447 35.4692,4.4043 9.5007,0.6056 19.204,3.3032 28.7132,4.5475 4.2225,0.5505 9.5091,2.5765 13.4614,-0.3524 7.0094,-5.1971 4.1211,-28.2976 4.2816,-37.2713 0.4645,-24.5759 1.6468,-49.196 -0.152,-73.772 -0.7516,-10.306 -4.9488,-28.6499 -2.9558,-38.3724 0.9206,-4.4594 5.4555,-3.4684 8.1664,-3.4684 8.0059,0 15.6993,3.0279 23.6461,3.2922 20.9691,0.6717 41.6595,5.6705 62.4935,7.6194 12.5747,1.1782 29.7603,0.3083 41.3808,6.7056 m -199.3033,-5.5054 -11.7302,14.5452 -12.9969,25.0935 -4.7545,12.3431 6.68,0.8807 17.7346,-0.012 c -0.3125,8.8746 -3.3612,16.505 -10.1341,19.544 -2.3393,1.0571 -12.4396,0.1431 -12.372,4.5914 0.051,3.6886 5.3626,4.2062 7.305,4.3933 7.3978,0.6937 15.0913,-1.9819 19.8205,-9.8325 6.9334,-11.5062 4.307,-26.2496 3.8594,-39.6167 -0.3547,-10.4602 0.5743,-21.8013 -1.7228,-31.9311 h -1.689 m -142.7213,1.1011 -10.9786,23.1225 c 6.6463,1.3764 2.9812,11.187 8.4957,12.8165 11.916,3.5234 28.1474,-1.8058 40.4856,-1.8058 2.1704,0 15.5389,-0.2862 10.4296,7.047 -3.3358,4.7896 -14.3734,2.8627 -18.8746,2.8627 -8.2002,0 -16.3074,1.2773 -24.4907,1.101 -2.6348,-0.066 -6.68,-2.7525 -9.0616,-1.7176 -2.7783,1.2111 -7.1276,11.5173 -8.673,14.9306 14.6184,0 29.3212,-1.3214 43.9143,-2.1581 7.7018,-0.4405 17.8444,1.3543 25.2084,-1.4974 6.5112,-2.5215 2.2633,-26.7121 -1.7396,-30.8081 -7.5921,-7.7626 -28.5443,-2.3563 -37.8254,-1.8279 -3.5723,0.1982 -9.9736,3.1712 -12.8871,-0.7046 -3.3697,-4.4924 -0.9881,-15.5252 -2.314,-21.3608 h -1.689 m -69.2493,4.4043 -4.9742,16.7583 -6.0044,10.7685 c 5.1178,1.0681 7.6428,11.8256 3.7158,16.9565 -2.1872,2.8408 -6.832,1.7618 -9.6273,1.7618 -2.9558,0 -8.158,1.2442 -10.4719,-1.7618 -4.7292,-6.177 -2.1957,-28.5288 -2.1957,-36.7759 -3.9185,0.8699 -5.4302,5.098 -8.462,8.137 -11.1474,11.1869 -19.4151,27.0974 -25.3182,43.6135 6.6632,2.0701 18.6129,-4.0629 24.1866,1.1342 2.9135,2.7086 0.2956,9.1829 -1.2583,11.9797 -4.9995,8.9737 -13.0561,7.5313 -20.3948,8.9076 1.8579,8.071 9.8132,7.3111 15.2011,6.2761 11.7471,-2.2681 16.3497,-14.3469 17.7346,-28.2976 6.908,0 25.276,2.4885 30.74,-3.3252 2.5419,-2.7197 0.5404,-10.5814 0.5067,-14.2919 -0.1182,-13.6644 1.3934,-28.6169 -1.689,-41.8408 h -1.689 m 206.059,19.8192 0.8446,14.3141 h -10.1341 l 9.2895,-14.3141 m -528.6598,19.8194 -18.5791,6.6065 c -3.8425,-7.091 -6.3592,-20.1387 4.2224,-18.4651 5.4049,0.8589 11.0378,6.5514 14.3567,11.8586 m 284.598,-6.6064 c 0,10.9116 -0.3377,14.3029 -9.2895,14.314 l 6.756,-14.314 h 2.5335 m 191.7532,2.8847 c 6.1481,-2.9839 10.2101,9.5353 4.079,12.8056 -6.5449,3.5015 -10.4803,-9.7005 -4.079,-12.8056 m -407.9464,22.44 c 0.929,-15.9876 26.4837,-10.9556 35.4692,-11.0107 3.4541,-0.022 8.4113,-2.1802 11.6289,-0.2753 9.0615,5.3402 -4.3493,9.0838 -7.4063,9.0838 -2.5335,0 -5.0671,-0.066 -7.6006,0.012 -4.2479,0.1431 -8.4028,1.0569 -12.6675,1.09 -6.4859,0.045 -12.9041,1.1012 -19.4237,1.1012 m 247.4568,9.7444 c -6.3507,2.3563 -3.6314,14.7433 2.4829,12.4421 6.1396,-2.3123 3.5553,-14.6773 -2.4829,-12.4421 m 90.345,53.0166 1.6891,8.8086 c -3.4119,-1.2993 -3.8594,-5.4393 -1.6891,-8.8086 m 21.9572,2.2023 -0.8445,1.1011 -1.689,-3.3034 2.5335,2.2023 m -640.9791,117.8148 c -5.295,20.8654 -30.3262,31.3146 -37.6057,6.6065 -1.4442,-4.8998 -3.5216,-25.7101 3.074,-26.2497 4.2985,-0.3413 9.3486,7.6635 12.8195,10.4052 6.3845,5.0539 14.4157,7.6305 21.7122,9.238 m 130.8983,6.6065 c 9.5513,-0.4956 19.128,-1.1012 28.7132,-1.1012 3.0232,0 8.0058,-1.4313 10.742,0.3855 2.9558,1.9599 2.8714,8.0378 3.2514,11.7264 1.0979,10.5042 2.4321,30.0703 -4.0536,38.1081 -6.7561,8.3792 -17.7262,7.5425 -24.0431,-0.8807 -9.0615,-12.0789 -14.6099,-31.5678 -14.6099,-48.2381 z"
       id="path2373" />
  </g>
</svg>
